<svg id="visual" viewBox="0 0 900 600" width="900" height="600" xmlns="http://www.w3.org/2000/svg" xmlns:xlink="http://www.w3.org/1999/xlink" version="1.1"><path d="M0 193L82 193L82 133L164 133L164 109L245 109L245 151L327 151L327 109L409 109L409 283L491 283L491 211L573 211L573 181L655 181L655 127L736 127L736 187L818 187L818 181L900 181L900 115L900 0L900 0L818 0L818 0L736 0L736 0L655 0L655 0L573 0L573 0L491 0L491 0L409 0L409 0L327 0L327 0L245 0L245 0L164 0L164 0L82 0L82 0L0 0Z" fill="#fa7268"></path><path d="M0 283L82 283L82 277L164 277L164 241L245 241L245 265L327 265L327 205L409 205L409 343L491 343L491 355L573 355L573 265L655 265L655 253L736 253L736 289L818 289L818 247L900 247L900 217L900 113L900 179L818 179L818 185L736 185L736 125L655 125L655 179L573 179L573 209L491 209L491 281L409 281L409 107L327 107L327 149L245 149L245 107L164 107L164 131L82 131L82 191L0 191Z" fill="#ea5e66"></path><path d="M0 385L82 385L82 373L164 373L164 295L245 295L245 397L327 397L327 301L409 301L409 391L491 391L491 415L573 415L573 385L655 385L655 313L736 313L736 373L818 373L818 319L900 319L900 325L900 215L900 245L818 245L818 287L736 287L736 251L655 251L655 263L573 263L573 353L491 353L491 341L409 341L409 203L327 203L327 263L245 263L245 239L164 239L164 275L82 275L82 281L0 281Z" fill="#d84a64"></path><path d="M0 475L82 475L82 451L164 451L164 373L245 373L245 433L327 433L327 349L409 349L409 427L491 427L491 457L573 457L573 445L655 445L655 403L736 403L736 463L818 463L818 385L900 385L900 421L900 323L900 317L818 317L818 371L736 371L736 311L655 311L655 383L573 383L573 413L491 413L491 389L409 389L409 299L327 299L327 395L245 395L245 293L164 293L164 371L82 371L82 383L0 383Z" fill="#c53762"></path><path d="M0 601L82 601L82 601L164 601L164 601L245 601L245 601L327 601L327 601L409 601L409 601L491 601L491 601L573 601L573 601L655 601L655 601L736 601L736 601L818 601L818 601L900 601L900 601L900 419L900 383L818 383L818 461L736 461L736 401L655 401L655 443L573 443L573 455L491 455L491 425L409 425L409 347L327 347L327 431L245 431L245 371L164 371L164 449L82 449L82 473L0 473Z" fill="#b0235f"></path></svg>